<svg xmlns="http://www.w3.org/2000/svg" width="512" height="512" viewBox="0 0 500 500">
<rect width="500" height="500" rx="100" fill="#D97706"/>
<g transform="translate(50,450) scale(0.08,-0.08)" fill="#FFFFFF" stroke="none">
<path d="M889 4343 c-2 -10 -3 -811 -1 -1781 l2 -1762 1770 1 c974 1 1770 5
1768 10 -3 7 -132 166 -184 225 -46 53 -109 127 -190 224 -48 58 -138 164
-199 235 -61 72 -144 171 -185 220 -41 50 -77 92 -80 95 -6 5 -101 118 -354
420 -71 85 -139 165 -150 177 -12 12 -26 29 -33 36 -65 79 -169 203 -173 207
-3 3 -28 32 -55 65 -28 33 -53 62 -57 63 -14 6 -9 31 11 54 10 13 65 77 122
144 57 66 163 190 235 275 400 471 559 657 583 684 31 36 120 141 141 168 8
11 22 27 31 36 8 9 40 45 70 81 30 36 56 67 59 70 3 3 18 20 34 38 l30 32
-1596 0 c-1512 0 -1596 -1 -1599 -17z m2341 -377 c0 -8 -3 -16 -8 -18 -4 -1
-25 -25 -47 -53 -22 -27 -53 -63 -69 -80 -15 -16 -45 -50 -65 -75 -20 -25 -81
-97 -136 -160 -56 -63 -127 -146 -159 -185 -79 -95 -139 -166 -151 -179 -6 -6
-114 -130 -240 -276 -126 -146 -249 -288 -274 -315 -72 -79 -176 -197 -207
-235 -16 -19 -52 -60 -80 -90 -29 -30 -63 -68 -75 -85 -13 -16 -46 -55 -75
-85 -49 -53 -94 -103 -145 -163 -13 -16 -36 -43 -51 -59 -15 -17 -25 -35 -21
-41 3 -6 1 -7 -5 -3 -6 3 -40 -27 -78 -69 -37 -41 -71 -72 -75 -69 -5 3 -9
511 -9 1130 l0 1124 985 0 c843 0 985 -2 985 -14z m-699 -1514 c19 -21 43 -49
54 -63 45 -55 121 -145 132 -157 7 -7 29 -34 50 -60 21 -26 40 -49 43 -52 3
-3 50 -59 105 -125 55 -66 104 -125 110 -131 5 -6 28 -33 50 -60 80 -98 289
-349 295 -354 3 -3 17 -21 31 -40 15 -19 56 -69 93 -110 36 -41 66 -80 66 -87
0 -10 -205 -13 -1027 -14 -1042 -1 -1125 0 -1132 7 -2 2 23 35 55 74 33 39 79
95 104 124 25 30 90 107 145 172 55 65 158 188 230 273 122 147 261 311 361
427 25 28 57 67 72 87 52 67 107 126 118 127 7 0 27 -17 45 -38z"/>
</g>
</svg>
